<svg width="90" height="49" viewBox="0 0 90 49" fill="none" xmlns="http://www.w3.org/2000/svg">
<rect width="90" height="49" fill="#202325"/>
<path d="M53.84 17.61C53.3292 17.099 52.7228 16.6936 52.0554 16.4171C51.3879 16.1405 50.6725 15.9982 49.95 15.9982C49.2275 15.9982 48.5121 16.1405 47.8446 16.4171C47.1772 16.6936 46.5708 17.099 46.06 17.61L45 18.67L43.94 17.61C42.9083 16.5783 41.509 15.9987 40.05 15.9987C38.591 15.9987 37.1917 16.5783 36.16 17.61C35.1283 18.6417 34.5487 20.041 34.5487 21.5C34.5487 22.959 35.1283 24.3583 36.16 25.39L37.22 26.45L45 34.23L52.78 26.45L53.84 25.39C54.351 24.8792 54.7563 24.2728 55.0329 23.6054C55.3095 22.9379 55.4518 22.2225 55.4518 21.5C55.4518 20.7775 55.3095 20.0621 55.0329 19.3946C54.7563 18.7272 54.351 18.1208 53.84 17.61V17.61Z" stroke="#6C7072" stroke-width="1.5" stroke-linecap="round" stroke-linejoin="round"/>
</svg>
